{
  "accessors": [
    {
      "bufferView": 2,
      "componentType": 5126,
      "count": 44,
      "max": [
        1.0,
        2.0625,
        1.59375
      ],
      "min": [
        -0.96875,
        -2.03125,
        0.0
      ],
      "type": "VEC3"
    },
    {
      "bufferView": 2,
      "byteOffset": 528,
      "componentType": 5126,
      "count": 44,
      "max": [
        1.0,
        1.0,
        1.0
      ],
      "min": [
        -1.0,
        -1.0,
        0.0
      ],
      "type": "VEC3"
    },
    {
      "bufferView": 1,
      "componentType": 5126,
      "count": 44,
      "max": [
        0.64453125,
        0.99609375
      ],
      "min": [
        0.00390625,
        0.22265625
      ],
      "type": "VEC2"
    },
    {
      "bufferView": 0,
      "componentType": 5125,
      "count": 72,
      "type": "SCALAR"
    },
    {
      "bufferView": 3,
      "componentType": 5126,
      "count": 210,
      "max": [
        6.9666666984558105
      ],
      "min": [
        0.0
      ],
      "type": "SCALAR"
    },
    {
      "bufferView": 5,
      "componentType": 5126,
      "count": 210,
      "max": [
        0.49433162808418274,
        0.7070867419242859,
        0.7070868611335754,
        0.7071067094802856
      ],
      "min": [
        -0.7071068286895752,
        -0.4981173574924469,
        -0.4981176257133484,
        -0.49433135986328125
      ],
      "type": "VEC4"
    },
    {
      "bufferView": 3,
      "byteOffset": 840,
      "componentType": 5126,
      "count": 1,
      "max": [
        0.0
      ],
      "min": [
        0.0
      ],
      "type": "SCALAR"
    },
    {
      "bufferView": 4,
      "componentType": 5126,
      "count": 1,
      "max": [
        700.0,
        550.0,
        700.0
      ],
      "min": [
        700.0,
        550.0,
        700.0
      ],
      "type": "VEC3"
    },
    {
      "bufferView": 3,
      "byteOffset": 844,
      "componentType": 5126,
      "count": 1,
      "max": [
        0.0
      ],
      "min": [
        0.0
      ],
      "type": "SCALAR"
    },
    {
      "bufferView": 4,
      "byteOffset": 12,
      "componentType": 5126,
      "count": 1,
      "max": [
        3396.9873046875,
        3396.987548828125,
        3396.9873046875
      ],
      "min": [
        3396.9873046875,
        3396.987548828125,
        3396.9873046875
      ],
      "type": "VEC3"
    },
    {
      "bufferView": 3,
      "byteOffset": 848,
      "componentType": 5126,
      "count": 1,
      "max": [
        0.0
      ],
      "min": [
        0.0
      ],
      "type": "SCALAR"
    },
    {
      "bufferView": 5,
      "byteOffset": 3360,
      "componentType": 5126,
      "count": 1,
      "max": [
        -0.2078275829553604,
        0.37287527322769165,
        0.0860849991440773,
        0.900200605392456
      ],
      "min": [
        -0.2078275829553604,
        0.37287527322769165,
        0.0860849991440773,
        0.900200605392456
      ],
      "type": "VEC4"
    },
    {
      "bufferView": 3,
      "byteOffset": 852,
      "componentType": 5126,
      "count": 210,
      "max": [
        6.9666666984558105
      ],
      "min": [
        0.0
      ],
      "type": "SCALAR"
    },
    {
      "bufferView": 5,
      "byteOffset": 3376,
      "componentType": 5126,
      "count": 210,
      "max": [
        0.07456239312887192,
        0.9043049812316895,
        0.9042947888374329,
        0.42687714099884033
      ],
      "min": [
        -0.42688053846359253,
        -0.6336479783058167,
        -0.6355863213539124,
        -0.4191516041755676
      ],
      "type": "VEC4"
    }
  ],
  "animations": [
    {
      "channels": [
        {
          "sampler": 0,
          "target": {
            "node": 4,
            "path": "rotation"
          }
        }
      ],
      "name": "2 - Vibrant.002|2 - Vibrant.002Action",
      "samplers": [
        {
          "input": 4,
          "interpolation": "LINEAR",
          "output": 5
        }
      ]
    },
    {
      "channels": [
        {
          "sampler": 0,
          "target": {
            "node": 4,
            "path": "translation"
          }
        },
        {
          "sampler": 1,
          "target": {
            "node": 4,
            "path": "scale"
          }
        },
        {
          "sampler": 2,
          "target": {
            "node": 4,
            "path": "rotation"
          }
        }
      ],
      "name": "2 - Vibrant.002|CameraAction.001",
      "samplers": [
        {
          "input": 6,
          "interpolation": "LINEAR",
          "output": 7
        },
        {
          "input": 8,
          "interpolation": "LINEAR",
          "output": 9
        },
        {
          "input": 10,
          "interpolation": "LINEAR",
          "output": 11
        }
      ]
    },
    {
      "channels": [
        {
          "sampler": 0,
          "target": {
            "node": 6,
            "path": "rotation"
          }
        }
      ],
      "name": "Camera|2 - Vibrant.002Action",
      "samplers": [
        {
          "input": 12,
          "interpolation": "LINEAR",
          "output": 13
        }
      ]
    }
  ],
  "asset": {
    "extras": {
      "author": "YoukaiDrawing (https://sketchfab.com/YoukaiDrawing)",
      "license": "CC-BY-4.0 (http://creativecommons.org/licenses/by/4.0/)",
      "source": "https://sketchfab.com/3d-models/shishiga-gaz-66-21fa6c947bc74946bc4d050e9d6d0deb",
      "title": "Shishiga (GAZ-66)"
    },
    "generator": "Sketchfab-13.28.0",
    "version": "2.0"
  },
  "bufferViews": [
    {
      "buffer": 0,
      "byteLength": 288,
      "name": "floatBufferViews",
      "target": 34963
    },
    {
      "buffer": 0,
      "byteLength": 352,
      "byteOffset": 288,
      "byteStride": 8,
      "name": "floatBufferViews",
      "target": 34962
    },
    {
      "buffer": 0,
      "byteLength": 1056,
      "byteOffset": 640,
      "byteStride": 12,
      "name": "floatBufferViews",
      "target": 34962
    },
    {
      "buffer": 0,
      "byteLength": 1692,
      "byteOffset": 1696,
      "name": "floatBufferViews"
    },
    {
      "buffer": 0,
      "byteLength": 24,
      "byteOffset": 3388,
      "byteStride": 12,
      "name": "floatBufferViews"
    },
    {
      "buffer": 0,
      "byteLength": 6736,
      "byteOffset": 3412,
      "byteStride": 16,
      "name": "floatBufferViews"
    }
  ],
  "buffers": [
    {
      "byteLength": 10148,
      "uri": "scene.bin"
    }
  ],
  "extensionsUsed": [
    "KHR_materials_unlit"
  ],
  "images": [
    {
      "uri": "textures/Gas-66_Final_baseColor.png"
    }
  ],
  "materials": [
    {
      "doubleSided": true,
      "extensions": {
        "KHR_materials_unlit": {}
      },
      "name": "Gas-66_Final",
      "pbrMetallicRoughness": {
        "baseColorTexture": {
          "index": 0
        },
        "metallicFactor": 0.0
      }
    }
  ],
  "meshes": [
    {
      "name": "2 - Vibrant.002_Gas-66 Final_0",
      "primitives": [
        {
          "attributes": {
            "NORMAL": 1,
            "POSITION": 0,
            "TEXCOORD_0": 2
          },
          "indices": 3,
          "material": 0,
          "mode": 4
        }
      ]
    }
  ],
  "nodes": [
    {
      "children": [
        1
      ],
      "matrix": [
        1.0,
        0.0,
        0.0,
        0.0,
        0.0,
        2.220446049250313e-16,
        -1.0,
        0.0,
        0.0,
        1.0,
        2.220446049250313e-16,
        0.0,
        0.0,
        0.0,
        0.0,
        1.0
      ],
      "name": "Sketchfab_model"
    },
    {
      "children": [
        2
      ],
      "matrix": [
        0.009999999776482582,
        0.0,
        0.0,
        0.0,
        0.0,
        0.0,
        0.009999999776482582,
        0.0,
        0.0,
        -0.009999999776482582,
        0.0,
        0.0,
        0.0,
        0.0,
        0.0,
        1.0
      ],
      "name": "e3c0deb3590a480f8f170c65ffe323b7.fbx"
    },
    {
      "children": [
        3
      ],
      "name": "Object_2"
    },
    {
      "children": [
        4,
        6
      ],
      "name": "RootNode"
    },
    {
      "children": [
        5
      ],
      "name": "2 - Vibrant.002",
      "rotation": [
        -0.7071068286895752,
        0.0,
        0.0,
        0.7071067094802856
      ],
      "scale": [
        100.0,
        100.0,
        100.0
      ]
    },
    {
      "mesh": 0,
      "name": "2 - Vibrant.002_Gas-66 Final_0"
    },
    {
      "children": [
        7
      ],
      "name": "Camera",
      "rotation": [
        -0.2078275829553604,
        0.9002005457878113,
        -0.0860849991440773,
        0.3728753328323364
      ],
      "scale": [
        3396.9873046875,
        3396.987548828125,
        3396.9873046875
      ],
      "translation": [
        700.0,
        550.0,
        700.0
      ]
    },
    {
      "name": "Object_7"
    }
  ],
  "samplers": [
    {
      "magFilter": 9728,
      "minFilter": 9986,
      "wrapS": 10497,
      "wrapT": 10497
    }
  ],
  "scene": 0,
  "scenes": [
    {
      "name": "Sketchfab_Scene",
      "nodes": [
        0
      ]
    }
  ],
  "textures": [
    {
      "sampler": 0,
      "source": 0
    }
  ]
}
